<svg id="Layer_1" data-name="Layer 1" xmlns="http://www.w3.org/2000/svg" viewBox="0 0 415.78 402.53"><title>Untitled-1</title><circle cx="117.89" cy="54.79" r="3.96" style="fill:#d1d3d4"/><circle cx="117.89" cy="64.88" r="3.96" style="fill:#d1d3d4"/><circle cx="117.89" cy="74.97" r="3.96" style="fill:#d1d3d4"/><circle cx="117.89" cy="85.05" r="3.96" style="fill:#d1d3d4"/><circle cx="117.89" cy="95.14" r="3.96" style="fill:#d1d3d4"/><circle cx="117.89" cy="105.23" r="3.96" style="fill:#d1d3d4"/><circle cx="117.89" cy="115.32" r="3.96" style="fill:#d1d3d4"/><circle cx="117.89" cy="125.41" r="3.96" style="fill:#d1d3d4"/><circle cx="117.89" cy="135.49" r="3.96" style="fill:#d1d3d4"/><circle cx="108.2" cy="54.79" r="3.96" style="fill:#d1d3d4"/><circle cx="108.2" cy="74.97" r="3.96" style="fill:#d1d3d4"/><circle cx="108.2" cy="85.05" r="3.96" style="fill:#d1d3d4"/><circle cx="108.2" cy="105.23" r="3.96" style="fill:#d1d3d4"/><circle cx="108.2" cy="125.41" r="3.96" style="fill:#d1d3d4"/><circle cx="108.2" cy="135.49" r="3.96" style="fill:#d1d3d4"/><circle cx="98.51" cy="54.79" r="3.96" style="fill:#d1d3d4"/><circle cx="98.51" cy="64.88" r="3.96" style="fill:#d1d3d4"/><circle cx="98.51" cy="74.97" r="3.96" style="fill:#d1d3d4"/><circle cx="98.51" cy="85.05" r="3.96" style="fill:#d1d3d4"/><circle cx="98.51" cy="95.14" r="3.96" style="fill:#d1d3d4"/><circle cx="98.51" cy="105.23" r="3.96" style="fill:#d1d3d4"/><circle cx="98.51" cy="115.32" r="3.96" style="fill:#d1d3d4"/><circle cx="98.51" cy="135.49" r="3.96" style="fill:#d1d3d4"/><circle cx="88.81" cy="54.79" r="3.96" style="fill:#d1d3d4"/><circle cx="88.81" cy="74.97" r="3.96" style="fill:#d1d3d4"/><circle cx="88.81" cy="85.05" r="3.96" style="fill:#d1d3d4"/><circle cx="88.81" cy="105.23" r="3.96" style="fill:#d1d3d4"/><circle cx="88.81" cy="125.41" r="3.96" style="fill:#d1d3d4"/><circle cx="88.81" cy="135.49" r="3.96" style="fill:#d1d3d4"/><circle cx="79.12" cy="54.79" r="3.96" style="fill:#d1d3d4"/><circle cx="79.12" cy="64.88" r="3.96" style="fill:#d1d3d4"/><circle cx="79.12" cy="85.05" r="3.96" style="fill:#d1d3d4"/><circle cx="79.12" cy="105.23" r="3.96" style="fill:#d1d3d4"/><circle cx="79.12" cy="115.32" r="3.96" style="fill:#d1d3d4"/><circle cx="79.12" cy="125.41" r="3.96" style="fill:#d1d3d4"/><circle cx="79.12" cy="135.49" r="3.96" style="fill:#d1d3d4"/><circle cx="69.43" cy="54.79" r="3.96" style="fill:#d1d3d4"/><circle cx="69.43" cy="64.88" r="3.96" style="fill:#d1d3d4"/><circle cx="69.43" cy="74.97" r="3.96" style="fill:#d1d3d4"/><circle cx="69.43" cy="85.05" r="3.96" style="fill:#d1d3d4"/><circle cx="69.43" cy="95.14" r="3.96" style="fill:#d1d3d4"/><circle cx="69.43" cy="105.23" r="3.96" style="fill:#d1d3d4"/><circle cx="69.43" cy="115.32" r="3.96" style="fill:#d1d3d4"/><circle cx="69.43" cy="135.49" r="3.96" style="fill:#d1d3d4"/><circle cx="59.74" cy="85.05" r="3.96" style="fill:#d1d3d4"/><circle cx="59.74" cy="105.23" r="3.96" style="fill:#d1d3d4"/><circle cx="59.74" cy="125.41" r="3.96" style="fill:#d1d3d4"/><circle cx="59.74" cy="135.49" r="3.96" style="fill:#d1d3d4"/><circle cx="50.04" cy="85.05" r="3.96" style="fill:#d1d3d4"/><circle cx="50.04" cy="95.14" r="3.96" style="fill:#d1d3d4"/><circle cx="50.04" cy="105.23" r="3.96" style="fill:#d1d3d4"/><circle cx="50.04" cy="115.32" r="3.96" style="fill:#d1d3d4"/><circle cx="50.04" cy="135.49" r="3.96" style="fill:#d1d3d4"/><circle cx="40.35" cy="85.05" r="3.96" style="fill:#d1d3d4"/><circle cx="40.35" cy="95.14" r="3.96" style="fill:#d1d3d4"/><circle cx="40.35" cy="105.23" r="3.96" style="fill:#d1d3d4"/><circle cx="40.35" cy="115.32" r="3.96" style="fill:#d1d3d4"/><circle cx="40.35" cy="125.41" r="3.96" style="fill:#d1d3d4"/><circle cx="40.35" cy="135.49" r="3.96" style="fill:#d1d3d4"/><circle cx="361.78" cy="291.96" r="3.96" style="fill:#d1d3d4"/><circle cx="361.78" cy="302.04" r="3.96" style="fill:#d1d3d4"/><circle cx="361.78" cy="312.13" r="3.96" style="fill:#d1d3d4"/><circle cx="361.78" cy="322.22" r="3.96" style="fill:#d1d3d4"/><circle cx="361.78" cy="332.31" r="3.96" style="fill:#d1d3d4"/><circle cx="361.78" cy="342.4" r="3.96" style="fill:#d1d3d4"/><circle cx="361.78" cy="352.48" r="3.96" style="fill:#d1d3d4"/><circle cx="361.78" cy="362.57" r="3.96" style="fill:#d1d3d4"/><circle cx="361.78" cy="372.66" r="3.96" style="fill:#d1d3d4"/><circle cx="352.09" cy="291.96" r="3.96" style="fill:#d1d3d4"/><circle cx="352.09" cy="312.13" r="3.96" style="fill:#d1d3d4"/><circle cx="352.09" cy="322.22" r="3.96" style="fill:#d1d3d4"/><circle cx="352.09" cy="342.4" r="3.96" style="fill:#d1d3d4"/><circle cx="352.09" cy="362.57" r="3.96" style="fill:#d1d3d4"/><circle cx="352.09" cy="372.66" r="3.96" style="fill:#d1d3d4"/><circle cx="342.4" cy="291.96" r="3.96" style="fill:#d1d3d4"/><circle cx="342.4" cy="302.04" r="3.96" style="fill:#d1d3d4"/><circle cx="342.4" cy="312.13" r="3.96" style="fill:#d1d3d4"/><circle cx="342.4" cy="322.22" r="3.96" style="fill:#d1d3d4"/><circle cx="342.4" cy="332.31" r="3.96" style="fill:#d1d3d4"/><circle cx="342.4" cy="342.4" r="3.96" style="fill:#d1d3d4"/><circle cx="342.4" cy="352.48" r="3.96" style="fill:#d1d3d4"/><circle cx="342.4" cy="372.66" r="3.96" style="fill:#d1d3d4"/><circle cx="332.7" cy="291.96" r="3.96" style="fill:#d1d3d4"/><circle cx="332.7" cy="312.13" r="3.96" style="fill:#d1d3d4"/><circle cx="332.7" cy="322.22" r="3.96" style="fill:#d1d3d4"/><circle cx="332.7" cy="342.4" r="3.96" style="fill:#d1d3d4"/><circle cx="332.7" cy="362.57" r="3.96" style="fill:#d1d3d4"/><circle cx="332.7" cy="372.66" r="3.96" style="fill:#d1d3d4"/><circle cx="323.01" cy="291.96" r="3.96" style="fill:#d1d3d4"/><circle cx="323.01" cy="302.04" r="3.96" style="fill:#d1d3d4"/><circle cx="323.01" cy="322.22" r="3.96" style="fill:#d1d3d4"/><circle cx="323.01" cy="342.4" r="3.96" style="fill:#d1d3d4"/><circle cx="323.01" cy="352.48" r="3.96" style="fill:#d1d3d4"/><circle cx="323.01" cy="362.57" r="3.96" style="fill:#d1d3d4"/><circle cx="323.01" cy="372.66" r="3.96" style="fill:#d1d3d4"/><circle cx="313.32" cy="291.96" r="3.96" style="fill:#d1d3d4"/><circle cx="313.32" cy="302.04" r="3.96" style="fill:#d1d3d4"/><circle cx="313.32" cy="312.13" r="3.96" style="fill:#d1d3d4"/><circle cx="313.32" cy="322.22" r="3.96" style="fill:#d1d3d4"/><circle cx="313.32" cy="332.31" r="3.96" style="fill:#d1d3d4"/><circle cx="313.32" cy="342.4" r="3.96" style="fill:#d1d3d4"/><circle cx="313.32" cy="352.48" r="3.96" style="fill:#d1d3d4"/><circle cx="313.32" cy="372.66" r="3.96" style="fill:#d1d3d4"/><circle cx="303.63" cy="322.22" r="3.96" style="fill:#d1d3d4"/><circle cx="303.63" cy="342.4" r="3.96" style="fill:#d1d3d4"/><circle cx="303.63" cy="362.57" r="3.96" style="fill:#d1d3d4"/><circle cx="303.63" cy="372.66" r="3.96" style="fill:#d1d3d4"/><circle cx="293.93" cy="322.22" r="3.96" style="fill:#d1d3d4"/><circle cx="293.93" cy="332.31" r="3.96" style="fill:#d1d3d4"/><circle cx="293.93" cy="342.4" r="3.96" style="fill:#d1d3d4"/><circle cx="293.93" cy="352.48" r="3.96" style="fill:#d1d3d4"/><circle cx="293.93" cy="372.66" r="3.96" style="fill:#d1d3d4"/><circle cx="284.24" cy="322.22" r="3.96" style="fill:#d1d3d4"/><circle cx="284.24" cy="332.31" r="3.96" style="fill:#d1d3d4"/><circle cx="284.24" cy="342.4" r="3.96" style="fill:#d1d3d4"/><circle cx="284.24" cy="352.48" r="3.96" style="fill:#d1d3d4"/><circle cx="284.24" cy="362.57" r="3.96" style="fill:#d1d3d4"/><circle cx="284.24" cy="372.66" r="3.96" style="fill:#d1d3d4"/><circle cx="411.82" cy="3.96" r="3.96" style="fill:#d1d3d4"/><circle cx="411.82" cy="14.04" r="3.96" style="fill:#d1d3d4"/><circle cx="411.82" cy="24.13" r="3.96" style="fill:#d1d3d4"/><circle cx="411.82" cy="34.22" r="3.96" style="fill:#d1d3d4"/><circle cx="411.82" cy="44.31" r="3.96" style="fill:#d1d3d4"/><circle cx="411.82" cy="54.4" r="3.96" style="fill:#d1d3d4"/><circle cx="411.82" cy="64.48" r="3.96" style="fill:#d1d3d4"/><circle cx="411.82" cy="74.57" r="3.96" style="fill:#d1d3d4"/><circle cx="411.82" cy="84.66" r="3.96" style="fill:#d1d3d4"/><circle cx="402.13" cy="3.96" r="3.96" style="fill:#d1d3d4"/><circle cx="402.13" cy="24.13" r="3.96" style="fill:#d1d3d4"/><circle cx="402.13" cy="34.22" r="3.96" style="fill:#d1d3d4"/><circle cx="402.13" cy="54.4" r="3.96" style="fill:#d1d3d4"/><circle cx="402.13" cy="74.57" r="3.96" style="fill:#d1d3d4"/><circle cx="402.13" cy="84.66" r="3.96" style="fill:#d1d3d4"/><circle cx="392.44" cy="3.96" r="3.96" style="fill:#d1d3d4"/><circle cx="392.44" cy="14.04" r="3.96" style="fill:#d1d3d4"/><circle cx="392.44" cy="24.13" r="3.96" style="fill:#d1d3d4"/><circle cx="392.44" cy="34.22" r="3.96" style="fill:#d1d3d4"/><circle cx="392.44" cy="44.31" r="3.96" style="fill:#d1d3d4"/><circle cx="392.44" cy="54.4" r="3.96" style="fill:#d1d3d4"/><circle cx="392.44" cy="64.48" r="3.96" style="fill:#d1d3d4"/><circle cx="392.44" cy="84.66" r="3.96" style="fill:#d1d3d4"/><circle cx="382.75" cy="3.96" r="3.96" style="fill:#d1d3d4"/><circle cx="382.75" cy="24.13" r="3.96" style="fill:#d1d3d4"/><circle cx="382.75" cy="34.22" r="3.96" style="fill:#d1d3d4"/><circle cx="382.75" cy="54.4" r="3.96" style="fill:#d1d3d4"/><circle cx="382.75" cy="74.57" r="3.96" style="fill:#d1d3d4"/><circle cx="382.75" cy="84.66" r="3.96" style="fill:#d1d3d4"/><circle cx="373.05" cy="3.96" r="3.96" style="fill:#d1d3d4"/><circle cx="373.05" cy="14.04" r="3.96" style="fill:#d1d3d4"/><circle cx="373.05" cy="34.22" r="3.96" style="fill:#d1d3d4"/><circle cx="373.05" cy="54.4" r="3.96" style="fill:#d1d3d4"/><circle cx="373.05" cy="64.48" r="3.96" style="fill:#d1d3d4"/><circle cx="373.05" cy="74.57" r="3.96" style="fill:#d1d3d4"/><circle cx="373.05" cy="84.66" r="3.96" style="fill:#d1d3d4"/><circle cx="363.36" cy="3.96" r="3.96" style="fill:#d1d3d4"/><circle cx="363.36" cy="14.04" r="3.96" style="fill:#d1d3d4"/><circle cx="363.36" cy="24.13" r="3.96" style="fill:#d1d3d4"/><circle cx="363.36" cy="34.22" r="3.96" style="fill:#d1d3d4"/><circle cx="363.36" cy="44.31" r="3.96" style="fill:#d1d3d4"/><circle cx="363.36" cy="54.4" r="3.96" style="fill:#d1d3d4"/><circle cx="363.36" cy="64.48" r="3.96" style="fill:#d1d3d4"/><circle cx="363.36" cy="84.66" r="3.96" style="fill:#d1d3d4"/><circle cx="353.67" cy="34.22" r="3.96" style="fill:#d1d3d4"/><circle cx="353.67" cy="54.4" r="3.96" style="fill:#d1d3d4"/><circle cx="353.67" cy="74.57" r="3.96" style="fill:#d1d3d4"/><circle cx="353.67" cy="84.66" r="3.96" style="fill:#d1d3d4"/><circle cx="343.98" cy="34.22" r="3.96" style="fill:#d1d3d4"/><circle cx="343.98" cy="44.31" r="3.96" style="fill:#d1d3d4"/><circle cx="343.98" cy="54.4" r="3.96" style="fill:#d1d3d4"/><circle cx="343.98" cy="64.48" r="3.96" style="fill:#d1d3d4"/><circle cx="343.98" cy="84.66" r="3.96" style="fill:#d1d3d4"/><circle cx="334.29" cy="34.22" r="3.96" style="fill:#d1d3d4"/><circle cx="334.29" cy="44.31" r="3.96" style="fill:#d1d3d4"/><circle cx="334.29" cy="54.4" r="3.96" style="fill:#d1d3d4"/><circle cx="334.29" cy="64.48" r="3.96" style="fill:#d1d3d4"/><circle cx="334.29" cy="74.57" r="3.96" style="fill:#d1d3d4"/><circle cx="334.29" cy="84.66" r="3.96" style="fill:#d1d3d4"/><circle cx="81.49" cy="317.87" r="3.96" style="fill:#d1d3d4"/><circle cx="81.49" cy="327.96" r="3.96" style="fill:#d1d3d4"/><circle cx="81.49" cy="338.04" r="3.96" style="fill:#d1d3d4"/><circle cx="81.49" cy="348.13" r="3.96" style="fill:#d1d3d4"/><circle cx="81.49" cy="358.22" r="3.96" style="fill:#d1d3d4"/><circle cx="81.49" cy="368.31" r="3.96" style="fill:#d1d3d4"/><circle cx="81.49" cy="378.4" r="3.96" style="fill:#d1d3d4"/><circle cx="81.49" cy="388.48" r="3.96" style="fill:#d1d3d4"/><circle cx="81.49" cy="398.57" r="3.96" style="fill:#d1d3d4"/><circle cx="71.8" cy="317.87" r="3.96" style="fill:#d1d3d4"/><circle cx="71.8" cy="338.04" r="3.96" style="fill:#d1d3d4"/><circle cx="71.8" cy="348.13" r="3.96" style="fill:#d1d3d4"/><circle cx="71.8" cy="368.31" r="3.96" style="fill:#d1d3d4"/><circle cx="71.8" cy="388.48" r="3.96" style="fill:#d1d3d4"/><circle cx="71.8" cy="398.57" r="3.96" style="fill:#d1d3d4"/><circle cx="62.11" cy="317.87" r="3.96" style="fill:#d1d3d4"/><circle cx="62.11" cy="327.96" r="3.96" style="fill:#d1d3d4"/><circle cx="62.11" cy="338.04" r="3.96" style="fill:#d1d3d4"/><circle cx="62.11" cy="348.13" r="3.96" style="fill:#d1d3d4"/><circle cx="62.11" cy="358.22" r="3.96" style="fill:#d1d3d4"/><circle cx="62.11" cy="368.31" r="3.96" style="fill:#d1d3d4"/><circle cx="62.11" cy="378.4" r="3.96" style="fill:#d1d3d4"/><circle cx="62.11" cy="398.57" r="3.96" style="fill:#d1d3d4"/><circle cx="52.42" cy="317.87" r="3.96" style="fill:#d1d3d4"/><circle cx="52.42" cy="338.04" r="3.96" style="fill:#d1d3d4"/><circle cx="52.42" cy="348.13" r="3.96" style="fill:#d1d3d4"/><circle cx="52.42" cy="368.31" r="3.96" style="fill:#d1d3d4"/><circle cx="52.42" cy="388.48" r="3.96" style="fill:#d1d3d4"/><circle cx="52.42" cy="398.57" r="3.96" style="fill:#d1d3d4"/><circle cx="42.73" cy="317.87" r="3.96" style="fill:#d1d3d4"/><circle cx="42.73" cy="327.96" r="3.96" style="fill:#d1d3d4"/><circle cx="42.73" cy="348.13" r="3.96" style="fill:#d1d3d4"/><circle cx="42.73" cy="368.31" r="3.96" style="fill:#d1d3d4"/><circle cx="42.73" cy="378.4" r="3.96" style="fill:#d1d3d4"/><circle cx="42.73" cy="388.48" r="3.96" style="fill:#d1d3d4"/><circle cx="42.73" cy="398.57" r="3.96" style="fill:#d1d3d4"/><circle cx="33.03" cy="317.87" r="3.96" style="fill:#d1d3d4"/><circle cx="33.03" cy="327.96" r="3.96" style="fill:#d1d3d4"/><circle cx="33.03" cy="338.04" r="3.96" style="fill:#d1d3d4"/><circle cx="33.03" cy="348.13" r="3.96" style="fill:#d1d3d4"/><circle cx="33.03" cy="358.22" r="3.96" style="fill:#d1d3d4"/><circle cx="33.03" cy="368.31" r="3.96" style="fill:#d1d3d4"/><circle cx="33.03" cy="378.4" r="3.96" style="fill:#d1d3d4"/><circle cx="33.03" cy="398.57" r="3.96" style="fill:#d1d3d4"/><circle cx="23.34" cy="348.13" r="3.96" style="fill:#d1d3d4"/><circle cx="23.34" cy="368.31" r="3.96" style="fill:#d1d3d4"/><circle cx="23.34" cy="388.48" r="3.96" style="fill:#d1d3d4"/><circle cx="23.34" cy="398.57" r="3.96" style="fill:#d1d3d4"/><circle cx="13.65" cy="348.13" r="3.96" style="fill:#d1d3d4"/><circle cx="13.65" cy="358.22" r="3.96" style="fill:#d1d3d4"/><circle cx="13.65" cy="368.31" r="3.96" style="fill:#d1d3d4"/><circle cx="13.65" cy="378.4" r="3.96" style="fill:#d1d3d4"/><circle cx="13.65" cy="398.57" r="3.96" style="fill:#d1d3d4"/><circle cx="3.96" cy="348.13" r="3.96" style="fill:#d1d3d4"/><circle cx="3.96" cy="358.22" r="3.96" style="fill:#d1d3d4"/><circle cx="3.96" cy="368.31" r="3.96" style="fill:#d1d3d4"/><circle cx="3.96" cy="378.4" r="3.96" style="fill:#d1d3d4"/><circle cx="3.96" cy="388.48" r="3.96" style="fill:#d1d3d4"/><circle cx="3.96" cy="398.57" r="3.96" style="fill:#d1d3d4"/></svg>