<svg id="Layer_1" data-name="Layer 1" xmlns="http://www.w3.org/2000/svg" viewBox="0 0 85.46 88.62"><title>Untitled-1</title><circle cx="81.5" cy="3.96" r="3.96" style="fill:#d1d3d4"/><circle cx="81.5" cy="14.05" r="3.96" style="fill:#d1d3d4"/><circle cx="81.5" cy="24.14" r="3.96" style="fill:#d1d3d4"/><circle cx="81.5" cy="34.22" r="3.96" style="fill:#d1d3d4"/><circle cx="81.5" cy="44.31" r="3.96" style="fill:#d1d3d4"/><circle cx="81.5" cy="54.4" r="3.96" style="fill:#d1d3d4"/><circle cx="81.5" cy="64.49" r="3.96" style="fill:#d1d3d4"/><circle cx="81.5" cy="74.58" r="3.96" style="fill:#d1d3d4"/><circle cx="81.5" cy="84.66" r="3.96" style="fill:#d1d3d4"/><circle cx="71.81" cy="3.96" r="3.96" style="fill:#d1d3d4"/><circle cx="71.81" cy="24.14" r="3.96" style="fill:#d1d3d4"/><circle cx="71.81" cy="34.22" r="3.96" style="fill:#d1d3d4"/><circle cx="71.81" cy="54.4" r="3.96" style="fill:#d1d3d4"/><circle cx="71.81" cy="74.58" r="3.96" style="fill:#d1d3d4"/><circle cx="71.81" cy="84.66" r="3.96" style="fill:#d1d3d4"/><circle cx="62.12" cy="3.96" r="3.96" style="fill:#d1d3d4"/><circle cx="62.12" cy="14.05" r="3.96" style="fill:#d1d3d4"/><circle cx="62.12" cy="24.14" r="3.96" style="fill:#d1d3d4"/><circle cx="62.12" cy="34.22" r="3.96" style="fill:#d1d3d4"/><circle cx="62.12" cy="44.31" r="3.96" style="fill:#d1d3d4"/><circle cx="62.12" cy="54.4" r="3.96" style="fill:#d1d3d4"/><circle cx="62.12" cy="64.49" r="3.96" style="fill:#d1d3d4"/><circle cx="62.12" cy="84.66" r="3.96" style="fill:#d1d3d4"/><circle cx="52.42" cy="3.96" r="3.96" style="fill:#d1d3d4"/><circle cx="52.42" cy="24.14" r="3.96" style="fill:#d1d3d4"/><circle cx="52.42" cy="34.22" r="3.96" style="fill:#d1d3d4"/><circle cx="52.42" cy="54.4" r="3.96" style="fill:#d1d3d4"/><circle cx="52.42" cy="74.58" r="3.96" style="fill:#d1d3d4"/><circle cx="52.42" cy="84.66" r="3.96" style="fill:#d1d3d4"/><circle cx="42.73" cy="3.96" r="3.96" style="fill:#d1d3d4"/><circle cx="42.73" cy="14.05" r="3.96" style="fill:#d1d3d4"/><circle cx="42.73" cy="34.22" r="3.96" style="fill:#d1d3d4"/><circle cx="42.73" cy="54.4" r="3.96" style="fill:#d1d3d4"/><circle cx="42.73" cy="64.49" r="3.96" style="fill:#d1d3d4"/><circle cx="42.73" cy="74.58" r="3.96" style="fill:#d1d3d4"/><circle cx="42.73" cy="84.66" r="3.96" style="fill:#d1d3d4"/><circle cx="33.04" cy="3.96" r="3.96" style="fill:#d1d3d4"/><circle cx="33.04" cy="14.05" r="3.96" style="fill:#d1d3d4"/><circle cx="33.04" cy="24.14" r="3.96" style="fill:#d1d3d4"/><circle cx="33.04" cy="34.22" r="3.96" style="fill:#d1d3d4"/><circle cx="33.04" cy="44.31" r="3.96" style="fill:#d1d3d4"/><circle cx="33.04" cy="54.4" r="3.96" style="fill:#d1d3d4"/><circle cx="33.04" cy="64.49" r="3.96" style="fill:#d1d3d4"/><circle cx="33.04" cy="84.66" r="3.96" style="fill:#d1d3d4"/><circle cx="23.35" cy="34.22" r="3.96" style="fill:#d1d3d4"/><circle cx="23.35" cy="54.4" r="3.96" style="fill:#d1d3d4"/><circle cx="23.35" cy="74.58" r="3.96" style="fill:#d1d3d4"/><circle cx="23.35" cy="84.66" r="3.96" style="fill:#d1d3d4"/><circle cx="13.65" cy="34.22" r="3.96" style="fill:#d1d3d4"/><circle cx="13.65" cy="44.31" r="3.96" style="fill:#d1d3d4"/><circle cx="13.65" cy="54.4" r="3.96" style="fill:#d1d3d4"/><circle cx="13.65" cy="64.49" r="3.96" style="fill:#d1d3d4"/><circle cx="13.65" cy="84.66" r="3.96" style="fill:#d1d3d4"/><circle cx="3.96" cy="34.22" r="3.96" style="fill:#d1d3d4"/><circle cx="3.96" cy="44.31" r="3.96" style="fill:#d1d3d4"/><circle cx="3.96" cy="54.4" r="3.96" style="fill:#d1d3d4"/><circle cx="3.96" cy="64.49" r="3.96" style="fill:#d1d3d4"/><circle cx="3.96" cy="74.58" r="3.96" style="fill:#d1d3d4"/><circle cx="3.96" cy="84.66" r="3.96" style="fill:#d1d3d4"/></svg>